<svg version="1.1" id="Layer_1" xmlns="http://www.w3.org/2000/svg" xmlns:xlink="http://www.w3.org/1999/xlink" x="0px" y="0px"
	 width="100%" viewBox="0 0 1449 430" enable-background="new 0 0 1449 430" xml:space="preserve">
<path fill="#FFFFFF" opacity="1.000000" stroke="none" 
	d="
M1.000000,196.000000 
	C1.000000,131.069290 1.000000,66.138565 1.000000,1.000000 
	C67.026718,1.000000 133.053665,1.000000 199.334717,1.281772 
	C185.844681,6.798076 177.789886,17.258995 174.095200,30.934078 
	C166.839767,57.788471 170.829010,83.850449 181.976410,108.787186 
	C191.686142,130.507889 201.958817,151.955887 208.485397,174.933228 
	C209.649353,179.031097 210.795212,183.134094 212.265213,188.356644 
	C218.390884,163.501343 227.147095,140.954773 237.818665,119.156242 
	C249.296967,95.709846 256.150360,71.372520 253.022995,44.986919 
	C250.713943,25.505615 244.101761,8.780917 224.000000,1.000000 
	C632.614807,1.000000 1041.229614,1.000000 1449.922241,1.000000 
	C1449.922241,144.263245 1449.922241,287.526550 1449.922241,430.894928 
	C967.000000,430.894928 484.000000,430.894928 1.000004,430.894501 
	C1.000000,365.569183 1.000000,300.244293 1.282092,234.638794 
	C6.317242,242.450027 13.340141,247.770538 21.963940,251.191818 
	C41.823147,259.070465 62.110203,258.282532 82.284157,253.294357 
	C92.061195,250.876907 101.740738,247.381302 110.847687,243.070801 
	C134.519348,231.866486 158.689301,222.136292 184.458298,215.470383 
	C183.588181,214.973312 183.192825,214.622818 182.737335,214.505127 
	C158.326172,208.198563 135.021530,199.019638 112.393028,187.943222 
	C94.266129,179.070282 75.219872,173.680679 54.793190,173.666245 
	C33.680882,173.651337 14.416649,177.673813 1.000000,196.000000 
M229.863785,233.612167 
	C229.682037,233.661560 229.500290,233.710953 229.318542,233.760345 
	C229.560638,233.824066 229.802750,233.887802 229.854675,234.672348 
	C236.770325,249.591904 243.829514,264.447235 250.546341,279.455780 
	C254.413055,288.095795 257.063232,297.330017 261.430115,305.685822 
	C269.727173,321.561737 280.717224,335.283386 297.224487,343.494659 
	C303.690948,346.711243 310.551941,348.927155 317.930542,347.461731 
	C339.274139,343.222809 349.328430,322.033813 339.491455,301.926575 
	C332.929718,288.514038 322.643555,278.264893 310.058990,270.732605 
	C301.428741,265.567078 291.841064,261.986633 282.633331,257.803467 
	C265.100250,249.838013 247.532791,241.948288 229.863785,233.612167 
M333.777618,179.185318 
	C325.628357,182.525070 317.292572,185.476181 309.366425,189.280762 
	C289.220795,198.950684 268.490295,207.000336 247.002548,213.113602 
	C244.840607,213.728699 242.672714,214.322861 239.231369,215.282700 
	C265.739746,222.093033 289.727814,231.676270 313.046356,243.032593 
	C325.836761,249.261627 339.234863,253.636490 353.358246,255.592026 
	C371.096771,258.048096 388.642731,257.824951 405.163544,249.897903 
	C425.432068,240.172684 429.964142,224.113800 426.082703,205.176636 
	C422.530182,187.844299 408.995392,179.976028 393.186096,176.182068 
	C373.501068,171.457977 353.871094,173.227219 333.777618,179.185318 
M210.790176,247.394867 
	C204.891815,269.488098 196.626923,290.709503 186.657242,311.241760 
	C179.262192,326.471619 173.323990,342.119507 171.533493,359.028564 
	C169.874573,374.695160 169.960632,390.299957 175.969193,405.278839 
	C185.198074,428.285675 205.893753,434.748749 226.626953,427.789551 
	C240.677612,423.073395 247.402588,411.106812 250.879181,397.498322 
	C257.504700,371.563782 253.467224,346.352661 242.735779,322.515167 
	C231.140427,296.758789 219.345596,271.180542 212.399796,242.430634 
	C211.664948,244.573868 211.310349,245.608063 210.790176,247.394867 
M723.375305,323.499756 
	C723.310486,332.827087 723.453003,342.162048 723.108887,351.479065 
	C722.874939,357.813049 720.552002,360.010559 714.297485,360.872833 
	C710.525208,361.392914 706.722168,361.688965 702.934448,362.085510 
	C702.934448,364.793304 702.934448,367.253143 702.934448,369.785278 
	C722.072144,369.785278 741.001587,369.785278 760.023926,369.785278 
	C760.023926,367.126892 760.023926,364.689789 760.023926,362.146667 
	C757.742493,361.746643 755.632080,361.368500 753.518799,361.007416 
	C742.880920,359.190033 739.998108,355.793304 739.994934,344.990631 
	C739.987244,318.666840 739.990601,292.343079 739.992615,266.019287 
	C739.993591,253.523849 739.926453,241.027740 740.034302,228.533203 
	C740.100708,220.831924 742.429138,217.850754 749.555847,215.998108 
	C753.034424,215.093781 756.581665,214.453568 760.076416,213.698425 
	C760.076416,211.085236 760.076416,208.793945 760.076416,206.264648 
	C741.012512,206.264648 722.090149,206.264648 702.946777,206.264648 
	C702.946777,208.764587 702.946777,211.213104 702.946777,213.955597 
	C704.845276,214.361649 706.792236,214.714783 708.704163,215.204773 
	C710.634460,215.699448 712.542725,216.290405 714.438293,216.907822 
	C721.111267,219.081284 722.999634,221.386444 723.270569,228.441208 
	C723.487854,234.097809 723.367493,239.767899 723.372375,245.432022 
	C723.382202,256.860260 723.375305,268.288483 723.375305,279.705994 
	C693.987549,279.705994 665.114380,279.705994 636.101868,279.705994 
	C636.101868,261.880432 635.983276,244.400604 636.161072,226.923782 
	C636.230774,220.072693 638.337830,217.733643 644.895874,216.052017 
	C648.542419,215.116974 652.268982,214.493927 655.831238,213.756790 
	C655.831238,211.061584 655.831238,208.659729 655.831238,206.346283 
	C636.640808,206.346283 617.755188,206.346283 598.734985,206.346283 
	C598.734985,208.971283 598.734985,211.277924 598.734985,213.758774 
	C600.518616,214.177170 602.280151,214.605850 604.048828,215.002808 
	C617.136536,217.940079 619.620544,221.030121 619.620850,234.406754 
	C619.621826,271.226715 619.627930,308.046692 619.605530,344.866669 
	C619.604065,347.191223 619.547913,349.540314 619.219421,351.835327 
	C618.401184,357.551849 615.965576,360.005676 610.244568,360.843079 
	C606.474548,361.394928 602.665466,361.680237 598.816895,362.091003 
	C598.816895,364.758942 598.816895,367.205261 598.816895,369.798492 
	C617.956543,369.798492 636.875549,369.798492 655.964355,369.798492 
	C655.964355,367.157867 655.964355,364.723541 655.964355,362.114441 
	C653.075256,361.618927 650.291321,361.246674 647.555481,360.652863 
	C638.819946,358.756744 636.152954,355.463684 636.078735,346.516449 
	C636.027649,340.352448 636.067566,334.187683 636.067444,328.023254 
	C636.067200,315.216492 636.067383,302.409729 636.067383,289.475281 
	C665.236511,289.475281 694.008972,289.475281 723.375305,289.475281 
	C723.375305,300.598511 723.375305,311.549133 723.375305,323.499756 
M1186.551270,214.919571 
	C1201.876831,215.008316 1217.202881,215.212570 1232.527832,215.148361 
	C1244.292236,215.099075 1251.471069,221.229889 1255.563721,231.638702 
	C1257.136719,235.639313 1258.244019,239.822998 1259.608398,244.062134 
	C1261.944214,244.062134 1264.356201,244.062134 1266.693481,244.062134 
	C1266.693481,231.300293 1266.693481,218.861893 1266.693481,206.238846 
	C1225.058594,206.238846 1183.660645,206.238846 1142.094238,206.238846 
	C1142.094238,208.886017 1142.094238,211.316452 1142.094238,213.695694 
	C1145.832520,214.522278 1149.414551,215.186844 1152.926880,216.115204 
	C1162.855957,218.739578 1165.027222,221.622787 1165.028809,231.933334 
	C1165.034546,269.917450 1165.032104,307.901550 1165.026123,345.885681 
	C1165.025757,347.550842 1165.092041,349.231720 1164.898193,350.878296 
	C1164.237793,356.485901 1161.805664,359.274506 1156.247681,360.273560 
	C1151.569214,361.114532 1146.815430,361.537201 1142.167725,362.135712 
	C1142.167725,364.909485 1142.167725,367.321747 1142.167725,369.864105 
	C1186.869751,369.864105 1231.312500,369.864105 1276.150146,369.864105 
	C1276.728027,362.022247 1277.348022,354.256470 1277.859619,346.483582 
	C1278.368530,338.752808 1278.768799,331.014862 1279.221313,323.202087 
	C1276.120239,323.202087 1273.669312,323.202087 1271.817505,323.202087 
	C1268.228027,331.634949 1264.832764,339.731506 1261.338013,347.784882 
	C1258.431274,354.483276 1253.186035,358.533112 1245.998535,358.872009 
	C1230.239868,359.614899 1214.433960,360.515472 1198.688721,360.025574 
	C1185.659302,359.620239 1182.032715,355.122375 1181.822388,342.170319 
	C1181.559937,326.014618 1181.712280,309.852051 1181.710571,293.692444 
	C1181.710327,292.426392 1181.905273,291.160370 1182.005615,289.941071 
	C1192.991089,289.941071 1203.639648,289.662689 1214.266602,290.021973 
	C1224.238281,290.359100 1229.012451,294.257416 1232.029907,303.825439 
	C1233.356689,308.032349 1234.119019,312.417236 1235.101318,316.567871 
	C1237.506104,316.567871 1239.598022,316.567871 1241.828125,316.567871 
	C1241.828125,295.881500 1241.828125,275.460541 1241.828125,254.867233 
	C1239.380371,254.867233 1237.130249,254.867233 1234.838379,254.867233 
	C1233.788818,259.098755 1233.021484,263.179810 1231.750244,267.097351 
	C1229.609985,273.691956 1225.462036,279.147400 1218.286987,279.548798 
	C1206.257935,280.221802 1194.163940,279.732849 1181.934814,279.732849 
	C1181.934814,258.425262 1181.934814,236.861359 1181.934814,214.919586 
	C1183.300049,214.919586 1184.431152,214.919586 1186.551270,214.919571 
M1340.068726,264.447174 
	C1344.785278,271.100433 1349.370239,277.853058 1354.283813,284.357452 
	C1356.221069,286.922180 1356.222900,288.720001 1354.348511,291.312469 
	C1341.573975,308.981415 1328.663208,326.563690 1316.383667,344.574188 
	C1308.855225,355.616150 1299.297974,362.014191 1285.775269,362.027679 
	C1285.543579,362.027924 1285.312256,362.396179 1285.235596,362.461243 
	C1285.235596,365.019257 1285.235596,367.423340 1285.235596,369.737610 
	C1305.307129,369.737610 1325.063599,369.737610 1344.790039,369.737610 
	C1344.790039,367.042694 1344.790039,364.622101 1344.790039,362.312836 
	C1340.420532,361.887115 1336.260132,361.755707 1332.208496,361.023163 
	C1326.058350,359.911285 1324.441162,356.587952 1326.948364,350.975311 
	C1327.624634,349.461456 1328.313477,347.926910 1329.214111,346.543518 
	C1339.919434,330.098358 1350.662964,313.678009 1361.422729,297.268341 
	C1361.645386,296.928650 1362.179077,296.792786 1362.981323,296.315979 
	C1372.426880,310.100830 1381.912964,323.768158 1391.183838,337.579926 
	C1394.046387,341.844513 1396.573364,346.381805 1398.802856,351.011505 
	C1401.433838,356.474365 1400.439697,358.650818 1394.606445,360.045502 
	C1389.808472,361.192688 1384.842285,361.635895 1379.894775,362.399719 
	C1379.894775,364.843231 1379.894775,367.291779 1379.894775,369.663239 
	C1401.698975,369.663239 1423.272095,369.663239 1444.615356,369.663239 
	C1444.615356,366.895447 1444.615356,364.476562 1444.615356,361.596527 
	C1432.254028,363.358398 1424.595947,356.973938 1418.307251,347.670624 
	C1410.945557,336.779968 1403.307007,326.073120 1395.642578,315.391327 
	C1387.789795,304.447083 1379.760498,293.629608 1371.549316,282.402466 
	C1384.063232,265.612305 1396.715210,249.099533 1408.835938,232.205612 
	C1416.462158,221.576431 1425.739868,214.443146 1439.249878,213.971497 
	C1439.480347,213.963440 1439.697632,213.583160 1439.741577,213.542557 
	C1439.741577,210.963593 1439.741577,208.571442 1439.741577,206.199280 
	C1419.941040,206.199280 1400.488525,206.199280 1380.789062,206.199280 
	C1380.789062,208.796890 1380.789062,211.223282 1380.789062,213.705185 
	C1384.074829,214.023804 1387.233276,214.103973 1390.302368,214.669479 
	C1400.026978,216.461349 1402.049683,219.840088 1397.056274,228.160736 
	C1387.483154,244.112518 1377.248657,259.667297 1366.806763,276.146912 
	C1358.248169,264.027527 1350.215820,253.016861 1342.603760,241.722885 
	C1338.717407,235.956757 1335.490479,229.734192 1332.145020,223.619659 
	C1329.945679,219.599960 1331.276489,216.829163 1335.794067,215.974976 
	C1340.796387,215.029129 1345.845581,214.331436 1350.837158,213.531616 
	C1350.837158,211.093063 1350.837158,208.689331 1350.837158,206.287842 
	C1329.463257,206.287842 1308.376343,206.287842 1287.233398,206.287842 
	C1287.233398,208.992111 1287.233398,211.431213 1287.233398,213.999969 
	C1299.209839,214.794205 1308.059937,220.499207 1314.853149,230.028671 
	C1322.969727,241.414490 1331.389893,252.583923 1340.068726,264.447174 
M253.234360,148.731812 
	C245.813843,166.161957 238.393341,183.592102 231.745453,199.207397 
	C248.011581,192.326172 265.718414,184.346024 283.806793,177.352692 
	C296.191132,172.564667 307.965179,166.935959 318.297668,158.635605 
	C329.081055,149.973068 338.241089,139.946884 342.264191,126.233078 
	C347.351837,108.890381 335.862000,90.575264 318.057861,87.762428 
	C305.300812,85.746971 295.001678,91.402489 285.657471,99.046249 
	C269.863861,111.965759 259.580536,128.626053 253.234360,148.731812 
M195.217148,197.233170 
	C187.172379,178.838257 178.847061,160.559647 171.158569,142.017014 
	C162.800491,121.859566 151.350815,104.266258 132.165619,92.927101 
	C106.900879,77.994728 86.875374,94.948616 83.580879,112.742050 
	C81.741516,122.676369 85.392456,131.457870 90.697746,139.542130 
	C102.403465,157.379440 119.358391,168.520126 138.946579,175.746811 
	C157.529053,182.602432 175.980957,189.638245 193.192139,199.570404 
	C194.228973,200.168732 195.425919,200.489548 197.382904,201.274033 
	C196.488510,199.543701 196.049118,198.693634 195.217148,197.233170 
M141.191635,258.711731 
	C139.934723,259.144867 138.656296,259.524414 137.424103,260.019104 
	C118.005730,267.815460 101.217064,279.102692 89.797096,297.070648 
	C83.689934,306.679565 80.622208,317.113007 85.174744,328.353638 
	C92.611000,346.714478 112.487312,353.073975 130.976471,342.679901 
	C151.409653,331.192932 163.879379,312.982544 171.667740,291.454987 
	C178.581818,272.344086 186.123810,253.574295 196.427856,236.003799 
	C196.700180,235.539413 196.744888,234.941528 196.633347,235.337570 
	C178.536865,242.955322 160.215454,250.667770 141.191635,258.711731 
M907.499756,370.009857 
	C913.966553,370.009857 920.433350,370.009857 927.098145,370.009857 
	C927.098145,367.217163 927.098145,364.760681 927.098145,362.244293 
	C924.066956,361.861389 921.100952,361.535248 918.150024,361.105286 
	C907.752625,359.590332 904.752869,356.160461 904.710999,345.616821 
	C904.666016,334.285767 904.699768,322.954468 904.699402,311.623260 
	C904.699158,304.527863 904.699341,297.432434 904.699341,290.941345 
	C917.873047,290.941345 930.499146,290.585327 943.091858,291.079865 
	C950.218811,291.359772 955.052917,295.802704 957.064758,302.745758 
	C958.437866,307.484436 959.417664,312.337036 960.560913,317.087280 
	C962.799988,317.087280 965.056702,317.087280 967.331299,317.087280 
	C967.331299,296.342407 967.331299,275.923340 967.331299,255.423340 
	C964.758240,255.423340 962.489075,255.423340 960.184753,255.423340 
	C959.743469,258.115204 959.380127,260.583527 958.929626,263.035858 
	C957.044617,273.297760 952.061646,279.252991 941.651489,280.109467 
	C929.474976,281.111328 917.152893,280.343689 904.979736,280.343689 
	C904.979736,258.711273 904.979736,236.970993 904.979736,215.192825 
	C922.725952,215.192825 940.194702,215.008820 957.656982,215.266098 
	C967.191833,215.406586 973.964233,220.529739 978.119446,228.939987 
	C979.872498,232.488297 981.573242,236.241699 982.273315,240.088318 
	C983.275940,245.598007 986.027466,246.758148 990.918213,245.126022 
	C990.918213,232.162582 990.918213,219.256989 990.918213,206.356079 
	C948.776062,206.356079 906.897217,206.356079 865.058777,206.356079 
	C865.058777,209.001923 865.058777,211.311279 865.058777,213.636292 
	C868.405823,214.392593 871.637634,215.022034 874.814697,215.858841 
	C886.364990,218.901093 888.027893,221.057053 888.028564,232.735825 
	C888.030762,270.395355 888.030457,308.054901 888.025879,345.714447 
	C888.025635,347.546906 888.092102,349.389984 887.927063,351.209930 
	C887.346497,357.612457 884.623047,360.397400 878.210571,361.091919 
	C873.815674,361.567963 869.403870,361.887360 865.231079,362.256317 
	C865.231079,365.035492 865.231079,367.440735 865.231079,370.009857 
	C879.203369,370.009857 892.851624,370.009857 907.499756,370.009857 
M522.620728,212.006989 
	C525.277161,212.154800 527.985046,212.021210 530.581543,212.496368 
	C546.693848,215.444870 556.601318,226.009811 562.831055,240.220016 
	C566.053528,247.570633 567.775391,255.579102 570.264893,263.578674 
	C572.172852,263.578674 574.599731,263.578674 576.587524,263.578674 
	C576.587524,244.316254 576.587524,225.278427 576.587524,206.929352 
	C567.959778,203.027451 567.462891,210.347015 564.925049,214.271606 
	C529.507996,193.012177 483.343689,200.399124 460.392517,239.922638 
	C442.998627,269.876068 442.107544,301.484344 457.338074,332.675842 
	C472.414337,363.551483 504.121429,378.591736 537.584839,372.016266 
	C558.036499,367.997559 578.822021,347.815582 582.428711,328.359741 
	C580.184937,327.427460 577.916016,326.484711 575.358459,325.422058 
	C573.993591,328.079895 572.668030,330.545502 571.444702,333.060760 
	C553.304504,370.357666 505.787994,369.919098 483.144958,340.927338 
	C460.771912,312.281281 460.369659,260.329376 482.993164,231.916702 
	C492.867981,219.514984 505.847839,212.904953 522.620728,212.006989 
M1026.892578,237.546097 
	C1026.892578,265.877380 1026.892822,294.208679 1026.892334,322.539948 
	C1026.892212,331.039368 1026.993652,339.540405 1026.859375,348.037720 
	C1026.722778,356.687164 1023.502258,360.105499 1015.056274,361.056580 
	C1012.111511,361.388184 1009.172913,361.774506 1006.067749,362.155945 
	C1006.067749,364.727386 1006.067749,367.152527 1006.067749,369.621277 
	C1047.424438,369.621277 1088.624390,369.621277 1129.823853,369.621277 
	C1130.996704,353.896118 1132.141235,338.551025 1133.280396,323.277039 
	C1130.015259,323.277039 1127.574585,323.277039 1125.829712,323.277039 
	C1122.007568,331.911438 1118.547241,340.172607 1114.707031,348.253113 
	C1111.981567,353.987640 1107.257568,357.487823 1100.931885,358.713379 
	C1085.289307,361.744049 1069.533325,362.612366 1053.692871,360.880371 
	C1047.566772,360.210541 1044.534790,356.856201 1043.956787,350.747864 
	C1043.580566,346.772034 1043.321777,342.768372 1043.316406,338.776764 
	C1043.267822,303.112640 1043.281006,267.448456 1043.303101,231.784286 
	C1043.304321,229.793732 1043.483521,227.797256 1043.683594,225.813995 
	C1044.240356,220.295074 1047.303223,217.088531 1052.743286,216.051605 
	C1056.755371,215.286880 1060.749146,214.426483 1064.555908,213.648560 
	C1064.555908,210.952469 1064.555908,208.685928 1064.555908,206.301270 
	C1044.890259,206.301270 1025.480835,206.301270 1005.999512,206.301270 
	C1005.999512,208.879303 1005.999512,211.183289 1005.999512,213.665970 
	C1007.298523,214.025986 1008.529175,214.400620 1009.776489,214.707611 
	C1025.037354,218.463837 1026.892578,220.829086 1026.892578,237.546097 
M822.286316,243.504944 
	C822.286499,239.005371 822.258667,234.505569 822.292664,230.006256 
	C822.363831,220.578171 824.551636,217.823883 833.642822,215.988007 
	C837.991272,215.109863 842.388062,214.471375 846.719604,213.731750 
	C846.719604,211.133438 846.719604,208.720688 846.719604,206.326721 
	C824.880432,206.326721 803.312439,206.326721 781.716187,206.326721 
	C781.716187,209.029602 781.716187,211.425797 781.716187,213.845871 
	C784.460449,214.350540 786.929138,214.717072 789.353882,215.275055 
	C791.781616,215.833740 794.194397,216.494415 796.562866,217.266373 
	C803.794067,219.623230 805.863403,222.352020 805.871765,230.080139 
	C805.914185,269.409973 805.914062,308.739899 805.872131,348.069733 
	C805.863037,356.618896 802.997009,359.768219 794.485657,360.819641 
	C790.235840,361.344666 785.957581,361.639038 781.689697,362.037964 
	C781.689697,364.883118 781.689697,367.300781 781.689697,369.747314 
	C803.564209,369.747314 825.152466,369.747314 846.794556,369.747314 
	C846.794556,367.047089 846.794556,364.604279 846.794556,362.098328 
	C843.321228,361.683746 840.015076,361.395538 836.744873,360.879517 
	C825.329285,359.078217 822.290405,355.501282 822.288452,343.994385 
	C822.282837,310.830627 822.286438,277.666870 822.286316,243.504944 
z"/>
<path fill="#ED8863" opacity="1.000000" stroke="none" 
	d="
M223.531372,1.000000 
	C244.101761,8.780917 250.713943,25.505615 253.022995,44.986919 
	C256.150360,71.372520 249.296967,95.709846 237.818665,119.156242 
	C227.147095,140.954773 218.390884,163.501343 212.265213,188.356644 
	C210.795212,183.134094 209.649353,179.031097 208.485397,174.933228 
	C201.958817,151.955887 191.686142,130.507889 181.976410,108.787186 
	C170.829010,83.850449 166.839767,57.788471 174.095200,30.934078 
	C177.789886,17.258995 185.844681,6.798076 199.794403,1.281772 
	C207.687576,1.000000 215.375168,1.000000 223.531372,1.000000 
z"/>
<path fill="#ED8863" opacity="1.000000" stroke="none" 
	d="
M1.000000,196.468658 
	C14.416649,177.673813 33.680882,173.651337 54.793190,173.666245 
	C75.219872,173.680679 94.266129,179.070282 112.393028,187.943222 
	C135.021530,199.019638 158.326172,208.198563 182.737335,214.505127 
	C183.192825,214.622818 183.588181,214.973312 184.458298,215.470383 
	C158.689301,222.136292 134.519348,231.866486 110.847687,243.070801 
	C101.740738,247.381302 92.061195,250.876907 82.284157,253.294357 
	C62.110203,258.282532 41.823147,259.070465 21.963940,251.191818 
	C13.340141,247.770538 6.317242,242.450027 1.282092,234.179077 
	C1.000000,221.645767 1.000000,209.291550 1.000000,196.468658 
z"/>
<path fill="#ED8863" opacity="1.000000" stroke="none" 
	d="
M334.167236,179.085999 
	C353.871094,173.227219 373.501068,171.457977 393.186096,176.182068 
	C408.995392,179.976028 422.530182,187.844299 426.082703,205.176636 
	C429.964142,224.113800 425.432068,240.172684 405.163544,249.897903 
	C388.642731,257.824951 371.096771,258.048096 353.358246,255.592026 
	C339.234863,253.636490 325.836761,249.261627 313.046356,243.032593 
	C289.727814,231.676270 265.739746,222.093033 239.231369,215.282700 
	C242.672714,214.322861 244.840607,213.728699 247.002548,213.113602 
	C268.490295,207.000336 289.220795,198.950684 309.366425,189.280762 
	C317.292572,185.476181 325.628357,182.525070 334.167236,179.085999 
z"/>
<path fill="#ED8863" opacity="1.000000" stroke="none" 
	d="
M210.872971,247.018555 
	C211.310349,245.608063 211.664948,244.573868 212.399796,242.430634 
	C219.345596,271.180542 231.140427,296.758789 242.735779,322.515167 
	C253.467224,346.352661 257.504700,371.563782 250.879181,397.498322 
	C247.402588,411.106812 240.677612,423.073395 226.626953,427.789551 
	C205.893753,434.748749 185.198074,428.285675 175.969193,405.278839 
	C169.960632,390.299957 169.874573,374.695160 171.533493,359.028564 
	C173.323990,342.119507 179.262192,326.471619 186.657242,311.241760 
	C196.626923,290.709503 204.891815,269.488098 210.872971,247.018555 
z"/>
<path fill="#030303" opacity="1.000000" stroke="none" 
	d="
M723.375305,322.999756 
	C723.375305,311.549133 723.375305,300.598511 723.375305,289.475281 
	C694.008972,289.475281 665.236511,289.475281 636.067383,289.475281 
	C636.067383,302.409729 636.067200,315.216492 636.067444,328.023254 
	C636.067566,334.187683 636.027649,340.352448 636.078735,346.516449 
	C636.152954,355.463684 638.819946,358.756744 647.555481,360.652863 
	C650.291321,361.246674 653.075256,361.618927 655.964355,362.114441 
	C655.964355,364.723541 655.964355,367.157867 655.964355,369.798492 
	C636.875549,369.798492 617.956543,369.798492 598.816895,369.798492 
	C598.816895,367.205261 598.816895,364.758942 598.816895,362.091003 
	C602.665466,361.680237 606.474548,361.394928 610.244568,360.843079 
	C615.965576,360.005676 618.401184,357.551849 619.219421,351.835327 
	C619.547913,349.540314 619.604065,347.191223 619.605530,344.866669 
	C619.627930,308.046692 619.621826,271.226715 619.620850,234.406754 
	C619.620544,221.030121 617.136536,217.940079 604.048828,215.002808 
	C602.280151,214.605850 600.518616,214.177170 598.734985,213.758774 
	C598.734985,211.277924 598.734985,208.971283 598.734985,206.346283 
	C617.755188,206.346283 636.640808,206.346283 655.831238,206.346283 
	C655.831238,208.659729 655.831238,211.061584 655.831238,213.756790 
	C652.268982,214.493927 648.542419,215.116974 644.895874,216.052017 
	C638.337830,217.733643 636.230774,220.072693 636.161072,226.923782 
	C635.983276,244.400604 636.101868,261.880432 636.101868,279.705994 
	C665.114380,279.705994 693.987549,279.705994 723.375305,279.705994 
	C723.375305,268.288483 723.382202,256.860260 723.372375,245.432022 
	C723.367493,239.767899 723.487854,234.097809 723.270569,228.441208 
	C722.999634,221.386444 721.111267,219.081284 714.438293,216.907822 
	C712.542725,216.290405 710.634460,215.699448 708.704163,215.204773 
	C706.792236,214.714783 704.845276,214.361649 702.946777,213.955597 
	C702.946777,211.213104 702.946777,208.764587 702.946777,206.264648 
	C722.090149,206.264648 741.012512,206.264648 760.076416,206.264648 
	C760.076416,208.793945 760.076416,211.085236 760.076416,213.698425 
	C756.581665,214.453568 753.034424,215.093781 749.555847,215.998108 
	C742.429138,217.850754 740.100708,220.831924 740.034302,228.533203 
	C739.926453,241.027740 739.993591,253.523849 739.992615,266.019287 
	C739.990601,292.343079 739.987244,318.666840 739.994934,344.990631 
	C739.998108,355.793304 742.880920,359.190033 753.518799,361.007416 
	C755.632080,361.368500 757.742493,361.746643 760.023926,362.146667 
	C760.023926,364.689789 760.023926,367.126892 760.023926,369.785278 
	C741.001587,369.785278 722.072144,369.785278 702.934448,369.785278 
	C702.934448,367.253143 702.934448,364.793304 702.934448,362.085510 
	C706.722168,361.688965 710.525208,361.392914 714.297485,360.872833 
	C720.552002,360.010559 722.874939,357.813049 723.108887,351.479065 
	C723.453003,342.162048 723.310486,332.827087 723.375305,322.999756 
z"/>
<path fill="#050505" opacity="1.000000" stroke="none" 
	d="
M1186.056641,214.919586 
	C1184.431152,214.919586 1183.300049,214.919586 1181.934814,214.919586 
	C1181.934814,236.861359 1181.934814,258.425262 1181.934814,279.732849 
	C1194.163940,279.732849 1206.257935,280.221802 1218.286987,279.548798 
	C1225.462036,279.147400 1229.609985,273.691956 1231.750244,267.097351 
	C1233.021484,263.179810 1233.788818,259.098755 1234.838379,254.867233 
	C1237.130249,254.867233 1239.380371,254.867233 1241.828125,254.867233 
	C1241.828125,275.460541 1241.828125,295.881500 1241.828125,316.567871 
	C1239.598022,316.567871 1237.506104,316.567871 1235.101318,316.567871 
	C1234.119019,312.417236 1233.356689,308.032349 1232.029907,303.825439 
	C1229.012451,294.257416 1224.238281,290.359100 1214.266602,290.021973 
	C1203.639648,289.662689 1192.991089,289.941071 1182.005615,289.941071 
	C1181.905273,291.160370 1181.710327,292.426392 1181.710571,293.692444 
	C1181.712280,309.852051 1181.559937,326.014618 1181.822388,342.170319 
	C1182.032715,355.122375 1185.659302,359.620239 1198.688721,360.025574 
	C1214.433960,360.515472 1230.239868,359.614899 1245.998535,358.872009 
	C1253.186035,358.533112 1258.431274,354.483276 1261.338013,347.784882 
	C1264.832764,339.731506 1268.228027,331.634949 1271.817505,323.202087 
	C1273.669312,323.202087 1276.120239,323.202087 1279.221313,323.202087 
	C1278.768799,331.014862 1278.368530,338.752808 1277.859619,346.483582 
	C1277.348022,354.256470 1276.728027,362.022247 1276.150146,369.864105 
	C1231.312500,369.864105 1186.869751,369.864105 1142.167725,369.864105 
	C1142.167725,367.321747 1142.167725,364.909485 1142.167725,362.135712 
	C1146.815430,361.537201 1151.569214,361.114532 1156.247681,360.273560 
	C1161.805664,359.274506 1164.237793,356.485901 1164.898193,350.878296 
	C1165.092041,349.231720 1165.025757,347.550842 1165.026123,345.885681 
	C1165.032104,307.901550 1165.034546,269.917450 1165.028809,231.933334 
	C1165.027222,221.622787 1162.855957,218.739578 1152.926880,216.115204 
	C1149.414551,215.186844 1145.832520,214.522278 1142.094238,213.695694 
	C1142.094238,211.316452 1142.094238,208.886017 1142.094238,206.238846 
	C1183.660645,206.238846 1225.058594,206.238846 1266.693481,206.238846 
	C1266.693481,218.861893 1266.693481,231.300293 1266.693481,244.062134 
	C1264.356201,244.062134 1261.944214,244.062134 1259.608398,244.062134 
	C1258.244019,239.822998 1257.136719,235.639313 1255.563721,231.638702 
	C1251.471069,221.229889 1244.292236,215.099075 1232.527832,215.148361 
	C1217.202881,215.212570 1201.876831,215.008316 1186.056641,214.919586 
z"/>
<path fill="#030303" opacity="1.000000" stroke="none" 
	d="
M1339.873535,264.147125 
	C1331.389893,252.583923 1322.969727,241.414490 1314.853149,230.028671 
	C1308.059937,220.499207 1299.209839,214.794205 1287.233398,213.999969 
	C1287.233398,211.431213 1287.233398,208.992111 1287.233398,206.287842 
	C1308.376343,206.287842 1329.463257,206.287842 1350.837158,206.287842 
	C1350.837158,208.689331 1350.837158,211.093063 1350.837158,213.531616 
	C1345.845581,214.331436 1340.796387,215.029129 1335.794067,215.974976 
	C1331.276489,216.829163 1329.945679,219.599960 1332.145020,223.619659 
	C1335.490479,229.734192 1338.717407,235.956757 1342.603760,241.722885 
	C1350.215820,253.016861 1358.248169,264.027527 1366.806763,276.146912 
	C1377.248657,259.667297 1387.483154,244.112518 1397.056274,228.160736 
	C1402.049683,219.840088 1400.026978,216.461349 1390.302368,214.669479 
	C1387.233276,214.103973 1384.074829,214.023804 1380.789062,213.705185 
	C1380.789062,211.223282 1380.789062,208.796890 1380.789062,206.199280 
	C1400.488525,206.199280 1419.941040,206.199280 1439.741577,206.199280 
	C1439.741577,208.571442 1439.741577,210.963593 1439.741577,213.542557 
	C1439.697632,213.583160 1439.480347,213.963440 1439.249878,213.971497 
	C1425.739868,214.443146 1416.462158,221.576431 1408.835938,232.205612 
	C1396.715210,249.099533 1384.063232,265.612305 1371.549316,282.402466 
	C1379.760498,293.629608 1387.789795,304.447083 1395.642578,315.391327 
	C1403.307007,326.073120 1410.945557,336.779968 1418.307251,347.670624 
	C1424.595947,356.973938 1432.254028,363.358398 1444.615356,361.596527 
	C1444.615356,364.476562 1444.615356,366.895447 1444.615356,369.663239 
	C1423.272095,369.663239 1401.698975,369.663239 1379.894775,369.663239 
	C1379.894775,367.291779 1379.894775,364.843231 1379.894775,362.399719 
	C1384.842285,361.635895 1389.808472,361.192688 1394.606445,360.045502 
	C1400.439697,358.650818 1401.433838,356.474365 1398.802856,351.011505 
	C1396.573364,346.381805 1394.046387,341.844513 1391.183838,337.579926 
	C1381.912964,323.768158 1372.426880,310.100830 1362.981323,296.315979 
	C1362.179077,296.792786 1361.645386,296.928650 1361.422729,297.268341 
	C1350.662964,313.678009 1339.919434,330.098358 1329.214111,346.543518 
	C1328.313477,347.926910 1327.624634,349.461456 1326.948364,350.975311 
	C1324.441162,356.587952 1326.058350,359.911285 1332.208496,361.023163 
	C1336.260132,361.755707 1340.420532,361.887115 1344.790039,362.312836 
	C1344.790039,364.622101 1344.790039,367.042694 1344.790039,369.737610 
	C1325.063599,369.737610 1305.307129,369.737610 1285.235596,369.737610 
	C1285.235596,367.423340 1285.235596,365.019257 1285.235596,362.461243 
	C1285.312256,362.396179 1285.543579,362.027924 1285.775269,362.027679 
	C1299.297974,362.014191 1308.855225,355.616150 1316.383667,344.574188 
	C1328.663208,326.563690 1341.573975,308.981415 1354.348511,291.312469 
	C1356.222900,288.720001 1356.221069,286.922180 1354.283813,284.357452 
	C1349.370239,277.853058 1344.785278,271.100433 1339.873535,264.147125 
z"/>
<path fill="#ED8863" opacity="1.000000" stroke="none" 
	d="
M253.393188,148.372437 
	C259.580536,128.626053 269.863861,111.965759 285.657471,99.046249 
	C295.001678,91.402489 305.300812,85.746971 318.057861,87.762428 
	C335.862000,90.575264 347.351837,108.890381 342.264191,126.233078 
	C338.241089,139.946884 329.081055,149.973068 318.297668,158.635605 
	C307.965179,166.935959 296.191132,172.564667 283.806793,177.352692 
	C265.718414,184.346024 248.011581,192.326172 231.745453,199.207397 
	C238.393341,183.592102 245.813843,166.161957 253.393188,148.372437 
z"/>
<path fill="#ED8863" opacity="1.000000" stroke="none" 
	d="
M195.413437,197.538361 
	C196.049118,198.693634 196.488510,199.543701 197.382904,201.274033 
	C195.425919,200.489548 194.228973,200.168732 193.192139,199.570404 
	C175.980957,189.638245 157.529053,182.602432 138.946579,175.746811 
	C119.358391,168.520126 102.403465,157.379440 90.697746,139.542130 
	C85.392456,131.457870 81.741516,122.676369 83.580879,112.742050 
	C86.875374,94.948616 106.900879,77.994728 132.165619,92.927101 
	C151.350815,104.266258 162.800491,121.859566 171.158569,142.017014 
	C178.847061,160.559647 187.172379,178.838257 195.413437,197.538361 
z"/>
<path fill="#ED8863" opacity="1.000000" stroke="none" 
	d="
M141.542847,258.545959 
	C160.215454,250.667770 178.536865,242.955322 196.633347,235.337570 
	C196.744888,234.941528 196.700180,235.539413 196.427856,236.003799 
	C186.123810,253.574295 178.581818,272.344086 171.667740,291.454987 
	C163.879379,312.982544 151.409653,331.192932 130.976471,342.679901 
	C112.487312,353.073975 92.611000,346.714478 85.174744,328.353638 
	C80.622208,317.113007 83.689934,306.679565 89.797096,297.070648 
	C101.217064,279.102692 118.005730,267.815460 137.424103,260.019104 
	C138.656296,259.524414 139.934723,259.144867 141.542847,258.545959 
z"/>
<path fill="#ED8863" opacity="1.000000" stroke="none" 
	d="
M229.979614,234.027130 
	C247.532791,241.948288 265.100250,249.838013 282.633331,257.803467 
	C291.841064,261.986633 301.428741,265.567078 310.058990,270.732605 
	C322.643555,278.264893 332.929718,288.514038 339.491455,301.926575 
	C349.328430,322.033813 339.274139,343.222809 317.930542,347.461731 
	C310.551941,348.927155 303.690948,346.711243 297.224487,343.494659 
	C280.717224,335.283386 269.727173,321.561737 261.430115,305.685822 
	C257.063232,297.330017 254.413055,288.095795 250.546341,279.455780 
	C243.829514,264.447235 236.770325,249.591904 229.933105,234.330536 
	C230.011551,233.988739 229.979614,234.027130 229.979614,234.027130 
z"/>
<path fill="#050505" opacity="1.000000" stroke="none" 
	d="
M906.999817,370.009857 
	C892.851624,370.009857 879.203369,370.009857 865.231079,370.009857 
	C865.231079,367.440735 865.231079,365.035492 865.231079,362.256317 
	C869.403870,361.887360 873.815674,361.567963 878.210571,361.091919 
	C884.623047,360.397400 887.346497,357.612457 887.927063,351.209930 
	C888.092102,349.389984 888.025635,347.546906 888.025879,345.714447 
	C888.030457,308.054901 888.030762,270.395355 888.028564,232.735825 
	C888.027893,221.057053 886.364990,218.901093 874.814697,215.858841 
	C871.637634,215.022034 868.405823,214.392593 865.058777,213.636292 
	C865.058777,211.311279 865.058777,209.001923 865.058777,206.356079 
	C906.897217,206.356079 948.776062,206.356079 990.918213,206.356079 
	C990.918213,219.256989 990.918213,232.162582 990.918213,245.126022 
	C986.027466,246.758148 983.275940,245.598007 982.273315,240.088318 
	C981.573242,236.241699 979.872498,232.488297 978.119446,228.939987 
	C973.964233,220.529739 967.191833,215.406586 957.656982,215.266098 
	C940.194702,215.008820 922.725952,215.192825 904.979736,215.192825 
	C904.979736,236.970993 904.979736,258.711273 904.979736,280.343689 
	C917.152893,280.343689 929.474976,281.111328 941.651489,280.109467 
	C952.061646,279.252991 957.044617,273.297760 958.929626,263.035858 
	C959.380127,260.583527 959.743469,258.115204 960.184753,255.423340 
	C962.489075,255.423340 964.758240,255.423340 967.331299,255.423340 
	C967.331299,275.923340 967.331299,296.342407 967.331299,317.087280 
	C965.056702,317.087280 962.799988,317.087280 960.560913,317.087280 
	C959.417664,312.337036 958.437866,307.484436 957.064758,302.745758 
	C955.052917,295.802704 950.218811,291.359772 943.091858,291.079865 
	C930.499146,290.585327 917.873047,290.941345 904.699341,290.941345 
	C904.699341,297.432434 904.699158,304.527863 904.699402,311.623260 
	C904.699768,322.954468 904.666016,334.285767 904.710999,345.616821 
	C904.752869,356.160461 907.752625,359.590332 918.150024,361.105286 
	C921.100952,361.535248 924.066956,361.861389 927.098145,362.244293 
	C927.098145,364.760681 927.098145,367.217163 927.098145,370.009857 
	C920.433350,370.009857 913.966553,370.009857 906.999817,370.009857 
z"/>
<path fill="#050505" opacity="1.000000" stroke="none" 
	d="
M522.163208,212.012955 
	C505.847839,212.904953 492.867981,219.514984 482.993164,231.916702 
	C460.369659,260.329376 460.771912,312.281281 483.144958,340.927338 
	C505.787994,369.919098 553.304504,370.357666 571.444702,333.060760 
	C572.668030,330.545502 573.993591,328.079895 575.358459,325.422058 
	C577.916016,326.484711 580.184937,327.427460 582.428711,328.359741 
	C578.822021,347.815582 558.036499,367.997559 537.584839,372.016266 
	C504.121429,378.591736 472.414337,363.551483 457.338074,332.675842 
	C442.107544,301.484344 442.998627,269.876068 460.392517,239.922638 
	C483.343689,200.399124 529.507996,193.012177 564.925049,214.271606 
	C567.462891,210.347015 567.959778,203.027451 576.587524,206.929352 
	C576.587524,225.278427 576.587524,244.316254 576.587524,263.578674 
	C574.599731,263.578674 572.172852,263.578674 570.264893,263.578674 
	C567.775391,255.579102 566.053528,247.570633 562.831055,240.220016 
	C556.601318,226.009811 546.693848,215.444870 530.581543,212.496368 
	C527.985046,212.021210 525.277161,212.154800 522.163208,212.012955 
z"/>
<path fill="#020202" opacity="1.000000" stroke="none" 
	d="
M1026.892578,237.056183 
	C1026.892578,220.829086 1025.037354,218.463837 1009.776489,214.707611 
	C1008.529175,214.400620 1007.298523,214.025986 1005.999512,213.665970 
	C1005.999512,211.183289 1005.999512,208.879303 1005.999512,206.301270 
	C1025.480835,206.301270 1044.890259,206.301270 1064.555908,206.301270 
	C1064.555908,208.685928 1064.555908,210.952469 1064.555908,213.648560 
	C1060.749146,214.426483 1056.755371,215.286880 1052.743286,216.051605 
	C1047.303223,217.088531 1044.240356,220.295074 1043.683594,225.813995 
	C1043.483521,227.797256 1043.304321,229.793732 1043.303101,231.784286 
	C1043.281006,267.448456 1043.267822,303.112640 1043.316406,338.776764 
	C1043.321777,342.768372 1043.580566,346.772034 1043.956787,350.747864 
	C1044.534790,356.856201 1047.566772,360.210541 1053.692871,360.880371 
	C1069.533325,362.612366 1085.289307,361.744049 1100.931885,358.713379 
	C1107.257568,357.487823 1111.981567,353.987640 1114.707031,348.253113 
	C1118.547241,340.172607 1122.007568,331.911438 1125.829712,323.277039 
	C1127.574585,323.277039 1130.015259,323.277039 1133.280396,323.277039 
	C1132.141235,338.551025 1130.996704,353.896118 1129.823853,369.621277 
	C1088.624390,369.621277 1047.424438,369.621277 1006.067749,369.621277 
	C1006.067749,367.152527 1006.067749,364.727386 1006.067749,362.155945 
	C1009.172913,361.774506 1012.111511,361.388184 1015.056274,361.056580 
	C1023.502258,360.105499 1026.722778,356.687164 1026.859375,348.037720 
	C1026.993652,339.540405 1026.892212,331.039368 1026.892334,322.539948 
	C1026.892822,294.208679 1026.892578,265.877380 1026.892578,237.056183 
z"/>
<path fill="#020202" opacity="1.000000" stroke="none" 
	d="
M822.286377,244.004028 
	C822.286438,277.666870 822.282837,310.830627 822.288452,343.994385 
	C822.290405,355.501282 825.329285,359.078217 836.744873,360.879517 
	C840.015076,361.395538 843.321228,361.683746 846.794556,362.098328 
	C846.794556,364.604279 846.794556,367.047089 846.794556,369.747314 
	C825.152466,369.747314 803.564209,369.747314 781.689697,369.747314 
	C781.689697,367.300781 781.689697,364.883118 781.689697,362.037964 
	C785.957581,361.639038 790.235840,361.344666 794.485657,360.819641 
	C802.997009,359.768219 805.863037,356.618896 805.872131,348.069733 
	C805.914062,308.739899 805.914185,269.409973 805.871765,230.080139 
	C805.863403,222.352020 803.794067,219.623230 796.562866,217.266373 
	C794.194397,216.494415 791.781616,215.833740 789.353882,215.275055 
	C786.929138,214.717072 784.460449,214.350540 781.716187,213.845871 
	C781.716187,211.425797 781.716187,209.029602 781.716187,206.326721 
	C803.312439,206.326721 824.880432,206.326721 846.719604,206.326721 
	C846.719604,208.720688 846.719604,211.133438 846.719604,213.731750 
	C842.388062,214.471375 837.991272,215.109863 833.642822,215.988007 
	C824.551636,217.823883 822.363831,220.578171 822.292664,230.006256 
	C822.258667,234.505569 822.286499,239.005371 822.286377,244.004028 
z"/>
<path fill="#ED8863" opacity="1.000000" stroke="none" 
	d="
M230.028198,233.970139 
	C229.802750,233.887802 229.560638,233.824066 229.318542,233.760345 
	C229.500290,233.710953 229.682037,233.661560 229.921692,233.819641 
	C229.979614,234.027130 230.011551,233.988739 230.028198,233.970139 
z"/>
</svg>